<svg width="674.43125px" height="149.6px" xmlns="http://www.w3.org/2000/svg" viewBox="-87.21562499999999 0.20000000000000284 674.43125 149.6" style="background: rgba(0, 0, 0, 0);" preserveAspectRatio="xMidYMid"><defs><linearGradient id="editing-gradient-gradient" x1="0" x2="1" y1="0.5" y2="0.5" gradientUnits="objectBoundingBox"><stop offset="0" stop-color="#f0f"></stop><stop offset="1" stop-color="#0ff"></stop></linearGradient></defs><g><g transform="translate(9.414994955062866, 100.2750015258789)"><path d="M28.54-49.70L28.54-49.70Q39.41-49.70 45.72-44.27L45.72-44.27L45.72-44.27Q52.04-38.84 52.04-28.76L52.04-28.76L37.06-28.76L37.06-28.76Q37.06-33.02 34.83-35.50L34.83-35.50L34.83-35.50Q32.59-37.99 28.47-37.99L28.47-37.99L28.47-37.99Q23.71-37.99 21.48-35.00L21.48-35.00L21.48-35.00Q19.24-32.02 19.24-26.70L19.24-26.70L19.24-22.15L19.24-22.15Q19.24-16.90 21.48-13.88L21.48-13.88L21.48-13.88Q23.71-10.86 28.33-10.86L28.33-10.86L28.33-10.86Q32.87-10.86 35.22-13.21L35.22-13.21L35.22-13.21Q37.56-15.55 37.56-19.81L37.56-19.81L52.04-19.81L52.04-19.81Q52.04-9.80 45.90-4.47L45.90-4.47L45.90-4.47Q39.76 0.85 28.54 0.85L28.54 0.85L28.54 0.85Q16.05 0.85 9.62-5.54L9.62-5.54L9.62-5.54Q3.20-11.93 3.20-24.42L3.20-24.42L3.20-24.42Q3.20-36.92 9.62-43.31L9.62-43.31L9.62-43.31Q16.05-49.70 28.54-49.70L28.54-49.70ZM109.84 0L93.22 0L91.16-6.89L74.05-6.89L71.99 0L55.95 0L73.77-48.85L92.02-48.85L109.84 0ZM82.50-35.22L77.32-17.82L87.90-17.82L82.79-35.22L82.50-35.22ZM173.24 0L157.69 0L157.69-17.61L157.69-17.61Q157.69-20.87 157.94-24.32L157.94-24.32L157.94-24.32Q158.19-27.76 158.47-30.10L158.47-30.10L158.47-30.10Q158.76-32.45 158.83-33.09L158.83-33.09L158.54-33.09L149.53 0L137.24 0L128.16-33.02L127.87-33.02L127.87-33.02Q127.94-32.38 128.26-30.07L128.26-30.07L128.26-30.07Q128.58-27.76 128.87-24.32L128.87-24.32L128.87-24.32Q129.15-20.87 129.15-17.61L129.15-17.61L129.15 0L114.74 0L114.74-48.85L136.89-48.85L144.27-20.66L144.56-20.66L151.87-48.85L173.24-48.85L173.24 0ZM215.27-48.85L215.27-48.85Q218.96-48.85 222.05-47.32L222.05-47.32L222.05-47.32Q225.14-45.80 226.95-43.03L226.95-43.03L226.95-43.03Q228.76-40.26 228.76-36.85L228.76-36.85L228.76-36.85Q228.76-27.83 220.60-25.49L220.60-25.49L220.60-25.21L220.60-25.21Q229.90-23.08 229.90-12.99L229.90-12.99L229.90-12.99Q229.90-9.16 228.02-6.21L228.02-6.21L228.02-6.21Q226.13-3.27 222.87-1.63L222.87-1.63L222.87-1.63Q219.60 0 215.70 0L215.70 0L182.75 0L182.75-48.85L215.27-48.85ZM198.44-38.13L198.44-29.82L209.24-29.82L209.24-29.82Q210.80-29.82 211.83-30.92L211.83-30.92L211.83-30.92Q212.86-32.02 212.86-33.65L212.86-33.65L212.86-34.36L212.86-34.36Q212.86-35.93 211.79-37.03L211.79-37.03L211.79-37.03Q210.73-38.13 209.24-38.13L209.24-38.13L198.44-38.13ZM198.44-19.74L198.44-11.36L210.37-11.36L210.37-11.36Q211.94-11.36 212.96-12.46L212.96-12.46L212.96-12.46Q213.99-13.56 213.99-15.19L213.99-15.19L213.99-15.90L213.99-15.90Q213.99-17.54 212.96-18.64L212.96-18.64L212.96-18.64Q211.94-19.74 210.37-19.74L210.37-19.74L198.44-19.74ZM284.36-33.87L284.36-33.87Q284.36-29.39 281.94-25.77L281.94-25.77L281.94-25.77Q279.53-22.15 274.91-20.45L274.91-20.45L285.77 0L268.17 0L259.50-17.82L253.68-17.82L253.68 0L237.99 0L237.99-48.85L267.88-48.85L267.88-48.85Q273.14-48.85 276.86-46.82L276.86-46.82L276.86-46.82Q280.59-44.80 282.47-41.36L282.47-41.36L282.47-41.36Q284.36-37.91 284.36-33.87L284.36-33.87ZM268.38-33.23L268.38-33.23Q268.38-35.15 267.10-36.42L267.10-36.42L267.10-36.42Q265.82-37.70 263.98-37.70L263.98-37.70L253.68-37.70L253.68-28.68L263.98-28.68L263.98-28.68Q265.82-28.68 267.10-30.00L267.10-30.00L267.10-30.00Q268.38-31.31 268.38-33.23L268.38-33.23ZM309.63 0L293.94 0L293.94-48.85L309.63-48.85L309.63 0ZM342.01-48.85L342.01-48.85Q367.64-48.85 367.64-24.42L367.64-24.42L367.64-24.42Q367.64 0 342.01 0L342.01 0L320.85 0L320.85-48.85L342.01-48.85ZM336.54-37.13L336.54-11.72L341.72-11.72L341.72-11.72Q351.59-11.72 351.59-22.29L351.59-22.29L351.59-26.55L351.59-26.55Q351.59-37.13 341.72-37.13L341.72-37.13L336.54-37.13ZM400.65-49.70L400.65-49.70Q407.68-49.70 413.29-47.57L413.29-47.57L413.29-47.57Q418.90-45.44 422.20-41.29L422.20-41.29L422.20-41.29Q425.50-37.13 425.50-31.17L425.50-31.17L410.52-31.17L410.52-31.17Q410.52-34.22 407.82-36.10L407.82-36.10L407.82-36.10Q405.13-37.99 401.29-37.99L401.29-37.99L401.29-37.99Q395.75-37.99 392.91-35.04L392.91-35.04L392.91-35.04Q390.07-32.09 390.07-26.70L390.07-26.70L390.07-22.15L390.07-22.15Q390.07-16.76 392.91-13.81L392.91-13.81L392.91-13.81Q395.75-10.86 401.29-10.86L401.29-10.86L401.29-10.86Q405.13-10.86 407.82-12.67L407.82-12.67L407.82-12.67Q410.52-14.48 410.52-17.32L410.52-17.32L399.45-17.32L399.45-27.26L425.50-27.26L425.50 0L417.41 0L415.85-4.83L415.85-4.83Q409.17 0.85 398.38 0.85L398.38 0.85L398.38 0.85Q386.24 0.85 380.13-5.50L380.13-5.50L380.13-5.50Q374.03-11.86 374.03-24.42L374.03-24.42L374.03-24.42Q374.03-36.85 380.95-43.27L380.95-43.27L380.95-43.27Q387.87-49.70 400.65-49.70L400.65-49.70ZM435.23 0L435.23-48.85L477.48-48.85L477.48-37.13L450.92-37.13L450.92-30.39L473.64-30.39L473.64-19.17L450.92-19.17L450.92-11.72L477.97-11.72L477.97 0L435.23 0Z" fill="url(#editing-gradient-gradient)"></path></g></g><style>text {
  font-size: 64px;
  font-family: Arial Black;
  dominant-baseline: central;
  text-anchor: middle;
}</style></svg>