<svg width="544.0062133789062px" height="149.6px" xmlns="http://www.w3.org/2000/svg" viewBox="-22.00310668945309 0.20000000000000284 544.0062133789062 149.6" style="background: rgba(0, 0, 0, 0);" preserveAspectRatio="xMidYMid"><defs><linearGradient id="editing-gradient-gradient" x1="0" x2="1" y1="0.5" y2="0.5" gradientUnits="objectBoundingBox"><stop offset="0" stop-color="#f0f"></stop><stop offset="1" stop-color="#0ff"></stop></linearGradient></defs><g><g transform="translate(53.684974670410156, 99.42500114440918)"><path d="M53.89 0L38.20 0L38.20-18.53L20.95-18.53L20.95 0L5.25 0L5.25-48.85L20.95-48.85L20.95-31.03L38.20-31.03L38.20-48.85L53.89-48.85L53.89 0ZM113.74 0L97.13 0L95.07-6.89L77.96-6.89L75.90 0L59.85 0L77.67-48.85L95.92-48.85L113.74 0ZM86.41-35.22L81.22-17.82L91.80-17.82L86.69-35.22L86.41-35.22ZM166.00-33.87L166.00-33.87Q166.00-29.39 163.58-25.77L163.58-25.77L163.58-25.77Q161.17-22.15 156.56-20.45L156.56-20.45L167.42 0L149.81 0L141.15-17.82L135.33-17.82L135.33 0L119.64 0L119.64-48.85L149.53-48.85L149.53-48.85Q154.78-48.85 158.51-46.82L158.51-46.82L158.51-46.82Q162.24-44.80 164.12-41.36L164.12-41.36L164.12-41.36Q166.00-37.91 166.00-33.87L166.00-33.87ZM150.02-33.23L150.02-33.23Q150.02-35.15 148.75-36.42L148.75-36.42L148.75-36.42Q147.47-37.70 145.62-37.70L145.62-37.70L135.33-37.70L135.33-28.68L145.62-28.68L145.62-28.68Q147.47-28.68 148.75-30.00L148.75-30.00L148.75-30.00Q150.02-31.31 150.02-33.23L150.02-33.23ZM206.33 0L188.15 0L170.83-48.85L187.58-48.85L197.38-16.19L197.66-16.19L207.53-48.85L223.58-48.85L206.33 0ZM279.46 0L262.84 0L260.78-6.89L243.67-6.89L241.61 0L225.57 0L243.39-48.85L261.64-48.85L279.46 0ZM252.12-35.22L246.94-17.82L257.52-17.82L252.41-35.22L252.12-35.22ZM331.71-33.87L331.71-33.87Q331.71-29.39 329.30-25.77L329.30-25.77L329.30-25.77Q326.88-22.15 322.27-20.45L322.27-20.45L333.13 0L315.52 0L306.86-17.82L301.04-17.82L301.04 0L285.35 0L285.35-48.85L315.24-48.85L315.24-48.85Q320.49-48.85 324.22-46.82L324.22-46.82L324.22-46.82Q327.95-44.80 329.83-41.36L329.83-41.36L329.83-41.36Q331.71-37.91 331.71-33.87L331.71-33.87ZM315.74-33.23L315.74-33.23Q315.74-35.15 314.46-36.42L314.46-36.42L314.46-36.42Q313.18-37.70 311.34-37.70L311.34-37.70L301.04-37.70L301.04-28.68L311.34-28.68L311.34-28.68Q313.18-28.68 314.46-30.00L314.46-30.00L314.46-30.00Q315.74-31.31 315.74-33.23L315.74-33.23ZM361.75-48.85L361.75-48.85Q387.38-48.85 387.38-24.42L387.38-24.42L387.38-24.42Q387.38 0 361.75 0L361.75 0L340.59 0L340.59-48.85L361.75-48.85ZM356.28-37.13L356.28-11.72L361.46-11.72L361.46-11.72Q371.33-11.72 371.33-22.29L371.33-22.29L371.33-26.55L371.33-26.55Q371.33-37.13 361.46-37.13L361.46-37.13L356.28-37.13Z" fill="url(#editing-gradient-gradient)"></path></g></g><style>text {
  font-size: 64px;
  font-family: Arial Black;
  dominant-baseline: central;
  text-anchor: middle;
}</style></svg>