<svg width="261.29375px" height="149.6px" xmlns="http://www.w3.org/2000/svg" viewBox="119.353125 0.20000000000000284 261.29375 149.6" style="background: rgba(0, 0, 0, 0);" preserveAspectRatio="xMidYMid"><defs><linearGradient id="editing-gradient-gradient" x1="0" x2="1" y1="0.5" y2="0.5" gradientUnits="objectBoundingBox"><stop offset="0" stop-color="#f0f"></stop><stop offset="1" stop-color="#0ff"></stop></linearGradient></defs><g><g transform="translate(161.28501892089844, 99.85000038146973)"><path d="M20.95-27.97L38.34-48.85L57.79-48.85L40.26-28.76L58.15 0L39.62 0L29.47-17.89L20.95-10.93L20.95 0L5.25 0L5.25-48.85L20.95-48.85L20.95-27.97ZM113.03 0L99.33 0L78.81-23.71L78.81 0L64.40 0L64.40-48.85L78.10-48.85L98.62-24.78L98.62-48.85L113.03-48.85L113.03 0ZM172.18-19.67L172.18-19.67Q172.18-9.66 165.86-4.40L165.86-4.40L165.86-4.40Q159.54 0.85 147.89 0.85L147.89 0.85L147.89 0.85Q136.25 0.85 129.89-4.40L129.89-4.40L129.89-4.40Q123.54-9.66 123.54-19.67L123.54-19.67L123.54-48.85L139.23-48.85L139.23-19.88L139.23-19.88Q139.23-15.76 141.43-13.31L141.43-13.31L141.43-13.31Q143.63-10.86 147.82-10.86L147.82-10.86L147.82-10.86Q152.01-10.86 154.25-13.35L154.25-13.35L154.25-13.35Q156.48-15.83 156.48-19.88L156.48-19.88L156.48-48.85L172.18-48.85L172.18-19.67Z" fill="url(#editing-gradient-gradient)"></path></g></g><style>text {
  font-size: 64px;
  font-family: Arial Black;
  dominant-baseline: central;
  text-anchor: middle;
}</style></svg>