<svg width="218.4313232421875px" height="149.6px" xmlns="http://www.w3.org/2000/svg" viewBox="140.78433837890626 0.20000000000000284 218.4313232421875 149.6" style="background: rgba(0, 0, 0, 0);" preserveAspectRatio="xMidYMid"><defs><linearGradient id="editing-gradient-gradient" x1="0" x2="1" y1="0.5" y2="0.5" gradientUnits="objectBoundingBox"><stop offset="0" stop-color="#f0f"></stop><stop offset="1" stop-color="#0ff"></stop></linearGradient></defs><g><g transform="translate(175.87500953674316, 99.42500114440918)"><path d="M62.76 0L47.22 0L47.22-17.61L47.22-17.61Q47.22-20.87 47.46-24.32L47.46-24.32L47.46-24.32Q47.71-27.76 48.00-30.10L48.00-30.10L48.00-30.10Q48.28-32.45 48.35-33.09L48.35-33.09L48.07-33.09L39.05 0L26.77 0L17.68-33.02L17.40-33.02L17.40-33.02Q17.47-32.38 17.79-30.07L17.79-30.07L17.79-30.07Q18.11-27.76 18.39-24.32L18.39-24.32L18.39-24.32Q18.67-20.87 18.67-17.61L18.67-17.61L18.67 0L4.26 0L4.26-48.85L26.41-48.85L33.80-20.66L34.08-20.66L41.39-48.85L62.76-48.85L62.76 0ZM88.68 0L72.99 0L72.99-48.85L88.68-48.85L88.68 0ZM143.99-36.35L128.01-36.35L128.01 0L112.32 0L112.32-36.35L96.28-36.35L96.28-48.85L143.99-48.85L143.99-36.35Z" fill="url(#editing-gradient-gradient)"></path></g></g><style>text {
  font-size: 64px;
  font-family: Arial Black;
  dominant-baseline: central;
  text-anchor: middle;
}</style></svg>