<svg width="465.5937133789062px" height="149.6px" xmlns="http://www.w3.org/2000/svg" viewBox="17.203143310546892 0.20000000000000284 465.5937133789062 149.6" style="background: rgba(0, 0, 0, 0);" preserveAspectRatio="xMidYMid"><defs><linearGradient id="editing-gradient-gradient" x1="0" x2="1" y1="0.5" y2="0.5" gradientUnits="objectBoundingBox"><stop offset="0" stop-color="#f0f"></stop><stop offset="1" stop-color="#0ff"></stop></linearGradient></defs><g><g transform="translate(84.31998133659363, 100.2750015258789)"><path d="M29.54-49.70L29.54-49.70Q42.17-49.70 49.06-43.24L49.06-43.24L49.06-43.24Q55.95-36.78 55.95-24.42L55.95-24.42L55.95-24.42Q55.95-12.07 49.06-5.61L49.06-5.61L49.06-5.61Q42.17 0.85 29.54 0.85L29.54 0.85L29.54 0.85Q16.90 0.85 10.05-5.57L10.05-5.57L10.05-5.57Q3.20-12.00 3.20-24.42L3.20-24.42L3.20-24.42Q3.20-36.85 10.05-43.27L10.05-43.27L10.05-43.27Q16.90-49.70 29.54-49.70L29.54-49.70ZM29.54-37.99L29.54-37.99Q24.50-37.99 21.87-34.93L21.87-34.93L21.87-34.93Q19.24-31.88 19.24-26.70L19.24-26.70L19.24-22.15L19.24-22.15Q19.24-16.97 21.87-13.92L21.87-13.92L21.87-13.92Q24.50-10.86 29.54-10.86L29.54-10.86L29.54-10.86Q34.58-10.86 37.24-13.92L37.24-13.92L37.24-13.92Q39.90-16.97 39.90-22.15L39.90-22.15L39.90-26.70L39.90-26.70Q39.90-31.88 37.24-34.93L37.24-34.93L37.24-34.93Q34.58-37.99 29.54-37.99L29.54-37.99ZM96.92-25.77L114.38 0L95.35 0L86.34-15.19L86.05-15.19L77.04 0L59.43 0L76.89-25.84L61.13-48.85L80.09-48.85L87.47-36.35L87.76-36.35L95.21-48.85L112.75-48.85L96.92-25.77ZM119.64 0L119.64-48.85L159.11-48.85L159.11-37.13L135.33-37.13L135.33-28.76L155.77-28.76L155.77-17.54L135.33-17.54L135.33 0L119.64 0ZM191.27-49.70L191.27-49.70Q203.91-49.70 210.80-43.24L210.80-43.24L210.80-43.24Q217.69-36.78 217.69-24.42L217.69-24.42L217.69-24.42Q217.69-12.07 210.80-5.61L210.80-5.61L210.80-5.61Q203.91 0.85 191.27 0.85L191.27 0.85L191.27 0.85Q178.64 0.85 171.78-5.57L171.78-5.57L171.78-5.57Q164.93-12.00 164.93-24.42L164.93-24.42L164.93-24.42Q164.93-36.85 171.78-43.27L171.78-43.27L171.78-43.27Q178.64-49.70 191.27-49.70L191.27-49.70ZM191.27-37.99L191.27-37.99Q186.23-37.99 183.61-34.93L183.61-34.93L183.61-34.93Q180.98-31.88 180.98-26.70L180.98-26.70L180.98-22.15L180.98-22.15Q180.98-16.97 183.61-13.92L183.61-13.92L183.61-13.92Q186.23-10.86 191.27-10.86L191.27-10.86L191.27-10.86Q196.32-10.86 198.98-13.92L198.98-13.92L198.98-13.92Q201.64-16.97 201.64-22.15L201.64-22.15L201.64-26.70L201.64-26.70Q201.64-31.88 198.98-34.93L198.98-34.93L198.98-34.93Q196.32-37.99 191.27-37.99L191.27-37.99ZM272.50-33.87L272.50-33.87Q272.50-29.39 270.08-25.77L270.08-25.77L270.08-25.77Q267.67-22.15 263.06-20.45L263.06-20.45L273.92 0L256.31 0L247.65-17.82L241.83-17.82L241.83 0L226.14 0L226.14-48.85L256.03-48.85L256.03-48.85Q261.28-48.85 265.01-46.82L265.01-46.82L265.01-46.82Q268.74-44.80 270.62-41.36L270.62-41.36L270.62-41.36Q272.50-37.91 272.50-33.87L272.50-33.87ZM256.52-33.23L256.52-33.23Q256.52-35.15 255.25-36.42L255.25-36.42L255.25-36.42Q253.97-37.70 252.12-37.70L252.12-37.70L241.83-37.70L241.83-28.68L252.12-28.68L252.12-28.68Q253.97-28.68 255.25-30.00L255.25-30.00L255.25-30.00Q256.52-31.31 256.52-33.23L256.52-33.23ZM302.53-48.85L302.53-48.85Q328.16-48.85 328.16-24.42L328.16-24.42L328.16-24.42Q328.16 0 302.53 0L302.53 0L281.37 0L281.37-48.85L302.53-48.85ZM297.06-37.13L297.06-11.72L302.25-11.72L302.25-11.72Q312.12-11.72 312.12-22.29L312.12-22.29L312.12-26.55L312.12-26.55Q312.12-37.13 302.25-37.13L302.25-37.13L297.06-37.13Z" fill="url(#editing-gradient-gradient)"></path></g></g><style>text {
  font-size: 64px;
  font-family: Arial Black;
  dominant-baseline: central;
  text-anchor: middle;
}</style></svg>